<svg width="203" height="41" viewBox="0 0 203 41" fill="none" xmlns="http://www.w3.org/2000/svg">
<g id="Logo" clip-path="url(#clip0_10_2501)">
<path id="Vector" fill-rule="evenodd" clip-rule="evenodd" d="M26.0075 12.0979C24.363 10.9991 22.4296 10.4126 20.4518 10.4126V0.412598C24.4074 0.412598 28.2742 1.58558 31.5632 3.78321C34.8522 5.98083 37.4156 9.10441 38.9294 12.7589C40.4431 16.4134 40.8392 20.4348 40.0675 24.3144C39.2958 28.194 37.391 31.7577 34.5939 34.5547C31.7969 37.3518 28.2332 39.2566 24.3536 40.0283C20.474 40.8 16.4526 40.4039 12.7981 38.8902C9.14358 37.3764 6.02001 34.813 3.82239 31.524C1.62476 28.235 0.451782 24.3682 0.451782 20.4126H10.4518C10.4518 22.3904 11.0383 24.3238 12.1371 25.9683C13.2359 27.6128 14.7977 28.8945 16.625 29.6514C18.4522 30.4083 20.4629 30.6063 22.4027 30.2204C24.3425 29.8346 26.1243 28.8822 27.5229 27.4837C28.9214 26.0851 29.8738 24.3033 30.2596 22.3635C30.6455 20.4237 30.4475 18.413 29.6906 16.5858C28.9337 14.7585 27.652 13.1967 26.0075 12.0979Z" fill="black"/>
<path id="Vector_2" fill-rule="evenodd" clip-rule="evenodd" d="M10.4518 0.412603C10.4518 1.72582 10.1931 3.02618 9.69058 4.23944C9.18803 5.45269 8.45144 6.55508 7.52285 7.48367C6.59427 8.41226 5.49188 9.14885 4.27862 9.6514C3.06536 10.1539 1.765 10.4126 0.451783 10.4126L0.451782 20.4126C3.07822 20.4126 5.67894 19.8953 8.10546 18.8902C10.532 17.8851 12.7368 16.4119 14.5939 14.5547C16.4511 12.6976 17.9243 10.4928 18.9294 8.06627C19.9345 5.63975 20.4518 3.03903 20.4518 0.412598L10.4518 0.412603Z" fill="black"/>
<path id="Vector_3" d="M126.071 14.8652H121.219V30.2775H126.071V14.8652Z" fill="black"/>
<path id="Vector_4" d="M121.759 11.9792C122.266 12.4866 122.9 12.7403 123.661 12.7403C124.422 12.7403 125.046 12.4866 125.532 11.9792C126.019 11.4507 126.262 10.8164 126.262 10.0764C126.262 9.31537 126.019 8.68109 125.532 8.17371C125.046 7.66629 124.422 7.4126 123.661 7.4126C122.9 7.4126 122.266 7.66629 121.759 8.17371C121.272 8.68109 121.029 9.31537 121.029 10.0764C121.029 10.8164 121.272 11.4507 121.759 11.9792Z" fill="black"/>
<path id="Vector_5" d="M51.608 30.2773V7.88818H56.5869V25.901H66.513V30.2773H51.608Z" fill="black"/>
<path id="Vector_6" fill-rule="evenodd" clip-rule="evenodd" d="M75.4792 30.6261C73.8936 30.6261 72.456 30.2773 71.1663 29.5796C69.8978 28.8608 68.8936 27.8883 68.1536 26.662C67.4137 25.4358 67.0437 24.0616 67.0437 22.5394C67.0437 21.0172 67.4137 19.6536 68.1536 18.4485C68.8936 17.2434 69.8978 16.292 71.1663 15.5944C72.4348 14.8755 73.8725 14.5161 75.4792 14.5161C77.086 14.5161 78.5236 14.865 79.7921 15.5626C81.0606 16.2603 82.0649 17.2223 82.8048 18.4485C83.5448 19.6536 83.9148 21.0172 83.9148 22.5394C83.9148 24.0616 83.5448 25.4358 82.8048 26.662C82.0649 27.8883 81.0606 28.8608 79.7921 29.5796C78.5236 30.2773 77.086 30.6261 75.4792 30.6261ZM75.4792 26.2181C76.1769 26.2181 76.79 26.0701 77.3186 25.7741C77.8471 25.457 78.2488 25.0236 78.5236 24.4739C78.8196 23.9031 78.9676 23.2582 78.9676 22.5394C78.9676 21.8206 78.8196 21.1969 78.5236 20.6684C78.2276 20.1187 77.8154 19.6959 77.2868 19.3999C76.7794 19.0827 76.1769 18.9242 75.4792 18.9242C74.8027 18.9242 74.2002 19.0827 73.6716 19.3999C73.1431 19.6959 72.7308 20.1187 72.4348 20.6684C72.1388 21.2181 71.9909 21.8523 71.9909 22.5711C71.9909 23.2688 72.1388 23.9031 72.4348 24.4739C72.7308 25.0236 73.1431 25.457 73.6716 25.7741C74.2002 26.0701 74.8027 26.2181 75.4792 26.2181Z" fill="black"/>
<path id="Vector_7" fill-rule="evenodd" clip-rule="evenodd" d="M87.7575 36.3028C89.0471 36.8947 90.5376 37.1907 92.229 37.1907C93.878 37.1907 95.3474 36.8629 96.637 36.2076C97.9267 35.5522 98.9414 34.6432 99.6814 33.4804C100.421 32.3176 100.792 30.9434 100.792 29.3577V14.8651H96.0344V15.9006C95.6806 15.6028 95.2788 15.3528 94.8294 15.1505C94.0048 14.7488 93.064 14.5479 92.007 14.5479C90.5905 14.5479 89.3325 14.8862 88.2332 15.5627C87.1337 16.2181 86.267 17.1272 85.6327 18.29C84.9984 19.4317 84.6814 20.7213 84.6814 22.159C84.6814 23.5755 84.9984 24.8651 85.6327 26.0279C86.267 27.1907 87.1337 28.1104 88.2332 28.7869C89.3325 29.4634 90.5905 29.8017 92.007 29.8017C93.0429 29.8017 93.9837 29.6009 94.8294 29.1992C95.239 29.0046 95.609 28.7753 95.9393 28.5112V29.4846C95.9393 30.5628 95.5905 31.3979 94.8928 31.9899C94.2163 32.5819 93.2755 32.8778 92.0704 32.8778C91.0979 32.8778 90.2628 32.7087 89.5651 32.3704C88.8886 32.0322 88.2754 31.5353 87.7257 30.8799L84.7448 33.8609C85.4847 34.918 86.489 35.732 87.7575 36.3028ZM94.6708 25.0448C94.1845 25.3408 93.6032 25.4888 92.9266 25.4888C92.2501 25.4888 91.6581 25.3408 91.1507 25.0448C90.6644 24.7488 90.2839 24.3471 90.0091 23.8397C89.7342 23.3112 89.5968 22.7509 89.5968 22.159C89.5968 21.5247 89.7342 20.9539 90.0091 20.4465C90.2839 19.9391 90.675 19.5374 91.1824 19.2414C91.6898 18.9454 92.2712 18.7974 92.9266 18.7974C93.6032 18.7974 94.1845 18.9454 94.6708 19.2414C95.1782 19.5374 95.5587 19.9391 95.8125 20.4465C96.0873 20.9539 96.2247 21.5247 96.2247 22.159C96.2247 22.7932 96.0873 23.364 95.8125 23.8714C95.5587 24.3577 95.1782 24.7488 94.6708 25.0448Z" fill="black"/>
<path id="Vector_8" fill-rule="evenodd" clip-rule="evenodd" d="M111.003 30.6261C109.417 30.6261 107.979 30.2773 106.69 29.5796C105.421 28.8608 104.417 27.8883 103.677 26.662C102.937 25.4358 102.567 24.0616 102.567 22.5394C102.567 21.0172 102.937 19.6536 103.677 18.4485C104.417 17.2434 105.421 16.292 106.69 15.5944C107.958 14.8755 109.396 14.5161 111.003 14.5161C112.609 14.5161 114.047 14.865 115.315 15.5626C116.584 16.2603 117.588 17.2223 118.328 18.4485C119.068 19.6536 119.438 21.0172 119.438 22.5394C119.438 24.0616 119.068 25.4358 118.328 26.662C117.588 27.8883 116.584 28.8608 115.315 29.5796C114.047 30.2773 112.609 30.6261 111.003 30.6261ZM111.003 26.2181C111.7 26.2181 112.313 26.0701 112.842 25.7741C113.37 25.457 113.772 25.0236 114.047 24.4739C114.343 23.9031 114.491 23.2582 114.491 22.5394C114.491 21.8206 114.343 21.1969 114.047 20.6684C113.751 20.1187 113.339 19.6959 112.81 19.3999C112.303 19.0827 111.7 18.9242 111.003 18.9242C110.326 18.9242 109.723 19.0827 109.195 19.3999C108.666 19.6959 108.254 20.1187 107.958 20.6684C107.662 21.2181 107.514 21.8523 107.514 22.5711C107.514 23.2688 107.662 23.9031 107.958 24.4739C108.254 25.0236 108.666 25.457 109.195 25.7741C109.723 26.0701 110.326 26.2181 111.003 26.2181Z" fill="black"/>
<path id="Vector_9" fill-rule="evenodd" clip-rule="evenodd" d="M137.733 30.5945C136.698 30.5945 135.746 30.3937 134.879 29.992C134.423 29.7806 134.011 29.5282 133.643 29.2348V36.7785H128.854V14.8651H133.706V15.9288C134.058 15.6409 134.449 15.392 134.879 15.1822C135.746 14.7593 136.698 14.5479 137.733 14.5479C139.192 14.5479 140.482 14.8968 141.602 15.5945C142.744 16.2921 143.632 17.2435 144.266 18.4486C144.922 19.6537 145.249 21.0279 145.249 22.5712C145.249 24.1146 144.922 25.4888 144.266 26.6939C143.632 27.899 142.744 28.8503 141.602 29.548C140.482 30.2457 139.192 30.5945 137.733 30.5945ZM136.846 26.2182C137.543 26.2182 138.146 26.0596 138.653 25.7425C139.182 25.4254 139.594 24.9919 139.89 24.4423C140.186 23.8926 140.334 23.2689 140.334 22.5712C140.334 21.8524 140.186 21.2182 139.89 20.6685C139.594 20.1188 139.182 19.696 138.653 19.4C138.146 19.0828 137.554 18.9243 136.877 18.9243C136.201 18.9243 135.598 19.0828 135.07 19.4C134.562 19.696 134.161 20.1188 133.865 20.6685C133.569 21.2182 133.421 21.8524 133.421 22.5712C133.421 23.2689 133.558 23.8926 133.833 24.4423C134.129 24.9919 134.541 25.4254 135.07 25.7425C135.598 26.0596 136.19 26.2182 136.846 26.2182Z" fill="black"/>
<path id="Vector_10" d="M149.998 30.3089C150.886 30.5415 151.784 30.6577 152.693 30.6577C154.617 30.6577 156.139 30.2138 157.26 29.3258C158.401 28.4379 158.972 27.2434 158.972 25.7423C158.972 24.7698 158.793 23.9875 158.433 23.3956C158.074 22.7825 157.609 22.2962 157.038 21.9368C156.467 21.5774 155.864 21.2919 155.23 21.0805C154.596 20.8691 153.993 20.6894 153.423 20.5414C152.852 20.3934 152.387 20.2243 152.027 20.034C151.668 19.8437 151.488 19.59 151.488 19.2729C151.488 18.9769 151.626 18.7549 151.9 18.6069C152.175 18.4378 152.587 18.3533 153.137 18.3533C153.708 18.3533 154.289 18.4695 154.881 18.7021C155.494 18.9346 156.044 19.3364 156.53 19.9072L159.289 17.1165C158.592 16.2285 157.683 15.5625 156.562 15.1186C155.463 14.6535 154.258 14.4209 152.947 14.4209C151.7 14.4209 150.611 14.6323 149.681 15.0551C148.75 15.478 148.031 16.0594 147.524 16.7993C147.017 17.5181 146.763 18.3744 146.763 19.3681C146.763 20.2983 146.943 21.07 147.302 21.6831C147.661 22.275 148.127 22.7402 148.697 23.0784C149.268 23.4167 149.871 23.681 150.505 23.8712C151.139 24.0615 151.742 24.2412 152.313 24.4104C152.883 24.5584 153.349 24.7381 153.708 24.9495C154.089 25.1398 154.279 25.4252 154.279 25.8057C154.279 26.1017 154.12 26.3342 153.803 26.5034C153.507 26.6725 153.074 26.7571 152.503 26.7571C151.678 26.7571 150.917 26.6091 150.22 26.3131C149.522 25.996 148.919 25.5626 148.412 25.0129L145.653 27.8036C146.182 28.3744 146.816 28.8819 147.556 29.3258C148.317 29.7486 149.131 30.0763 149.998 30.3089Z" fill="black"/>
<path id="Vector_11" d="M167.82 30.6263C166.404 30.6263 165.146 30.3409 164.047 29.7701C162.968 29.1781 162.123 28.3747 161.51 27.3599C160.896 26.324 160.59 25.1401 160.59 23.8081V14.8652H165.442V23.7447C165.442 24.2732 165.526 24.7278 165.696 25.1083C165.886 25.4889 166.161 25.7849 166.52 25.9963C166.88 26.2077 167.313 26.3134 167.82 26.3134C168.539 26.3134 169.11 26.0914 169.533 25.6474C169.956 25.1823 170.167 24.5481 170.167 23.7447V14.8652H175.019V23.7764C175.019 25.1295 174.713 26.324 174.099 27.3599C173.486 28.3747 172.641 29.1781 171.562 29.7701C170.484 30.3409 169.237 30.6263 167.82 30.6263Z" fill="black"/>
<path id="Vector_12" d="M182.283 14.8651H177.431V30.2774H182.283V21.271C182.283 20.7425 182.389 20.2985 182.6 19.9391C182.833 19.5797 183.14 19.3048 183.52 19.1146C183.901 18.9031 184.334 18.7974 184.82 18.7974C185.518 18.7974 186.099 19.0194 186.564 19.4634C187.051 19.8862 187.294 20.4888 187.294 21.271V30.2774H192.146V21.271C192.146 20.7425 192.252 20.2985 192.463 19.9391C192.696 19.5797 193.002 19.3048 193.383 19.1146C193.763 18.9031 194.197 18.7974 194.683 18.7974C195.381 18.7974 195.962 19.0194 196.427 19.4634C196.913 19.8862 197.156 20.4888 197.156 21.271V30.2774H202.009V20.7319C202.009 19.4423 201.734 18.3429 201.184 17.4338C200.655 16.5035 199.926 15.7953 198.996 15.3091C198.087 14.8016 197.04 14.5479 195.856 14.5479C194.651 14.5479 193.562 14.8122 192.59 15.3408C191.958 15.6775 191.406 16.1121 190.933 16.6445C190.492 16.0876 189.956 15.6319 189.323 15.2773C188.478 14.7911 187.516 14.5479 186.438 14.5479C185.296 14.5479 184.271 14.7911 183.362 15.2773C182.966 15.4796 182.607 15.7219 182.283 16.0042V14.8651Z" fill="black"/>
</g>
<defs>
<clipPath id="clip0_10_2501">
<rect width="202" height="40" fill="white" transform="translate(0.451782 0.412598)"/>
</clipPath>
</defs>
</svg>
